<svg xmlns="http://www.w3.org/2000/svg" viewBox="0 0 100 100">
  <defs>
    <pattern id="appStripes" patternUnits="userSpaceOnUse" width="100" height="8">
      <rect x="0" y="0" width="100" height="5" fill="#3b82f6" />
    </pattern>
    <clipPath id="appRightBladeClip">
      <path d="M80,20 L60,20 L40,50 L70,90 L80,80 L60,50 Z" />
    </clipPath>
  </defs>

  <!-- Shadow -->
  <g transform="translate(0, 3)" opacity="0.2">
      <path d="M20,20 L40,20 L60,50 L30,90 L20,80 L40,50 Z" fill="#000" />
      <path d="M80,20 L60,20 L40,50 L70,90 L80,80 L60,50 Z" fill="#000" />
  </g>

  <!-- Left Blade (Dark Slate for light theme visibility) -->
  <path d="M20,20 L40,20 L60,50 L30,90 L20,80 L40,50 Z" fill="#1e293b" />
  
  <!-- Right Blade -->
  <g clip-path="url(#appRightBladeClip)">
    <rect x="30" y="10" width="60" height="90" fill="url(#appStripes)" />
  </g>
</svg>
