<svg xmlns="http://www.w3.org/2000/svg" viewBox="0 0 1024 1024">
  <!-- Variant: Solid — drop the stripe pattern entirely.
       Right blade becomes solid sky-400 #38bdf8. Left blade slightly off-white #f1f5f9
       to keep the two blades visually distinct without relying on a striped texture
       that disappears below 64px. Most "big brand" reading at any size. -->
  <defs>
    <linearGradient id="bg" x1="50%" y1="0%" x2="50%" y2="100%">
      <stop offset="0%"   stop-color="#1a1d22" />
      <stop offset="100%" stop-color="#04060a" />
    </linearGradient>
    <linearGradient id="rim" x1="50%" y1="0%" x2="50%" y2="100%">
      <stop offset="0%"   stop-color="#ffffff" stop-opacity="0.18" />
      <stop offset="20%"  stop-color="#ffffff" stop-opacity="0" />
      <stop offset="80%"  stop-color="#ffffff" stop-opacity="0" />
      <stop offset="100%" stop-color="#ffffff" stop-opacity="0.04" />
    </linearGradient>
  </defs>

  <rect x="64" y="64" width="896" height="896" rx="200" fill="url(#bg)" />
  <rect x="65" y="65" width="894" height="894" rx="199" fill="none" stroke="url(#rim)" stroke-width="2" />

  <g transform="translate(212, 212) scale(6)">
    <g transform="translate(0, 5)" opacity="0.4">
      <path d="M20,20 L40,20 L60,50 L30,90 L20,80 L40,50 Z" fill="#000" />
      <path d="M80,20 L60,20 L40,50 L70,90 L80,80 L60,50 Z" fill="#000" />
    </g>
    <path d="M20,20 L40,20 L60,50 L30,90 L20,80 L40,50 Z" fill="#f1f5f9" />
    <path d="M80,20 L60,20 L40,50 L70,90 L80,80 L60,50 Z" fill="#38bdf8" />
  </g>
</svg>
